<?xml version="1.0" standalone="no"?><!DOCTYPE svg PUBLIC "-//W3C//DTD SVG 1.1//EN" "http://www.w3.org/Graphics/SVG/1.1/DTD/svg11.dtd"><svg t="1530762613777" class="icon" style="" viewBox="0 0 1024 1024" version="1.1" xmlns="http://www.w3.org/2000/svg" p-id="1907" xmlns:xlink="http://www.w3.org/1999/xlink" width="32" height="32"><defs><style type="text/css"></style></defs><path d="M507.428571 676.571429l66.285714-66.285714-86.857143-86.857143-66.285714 66.285714 0 32 54.857143 0 0 54.857143 32 0zm251.428571-411.428571q-9.142857-9.142857-18.857143 0.571429l-200 200q-9.714286 9.714286-0.571429 18.857143t18.857143-0.571429l200-200q9.714286-9.714286 0.571429-18.857143zm45.714286 339.428571l0 108.571429q0 68-48.285714 116.285714t-116.285714 48.285714l-475.428571 0q-68 0-116.285714-48.285714t-48.285714-116.285714l0-475.428571q0-68 48.285714-116.285714t116.285714-48.285714l475.428571 0q36 0 66.857143 14.285714 8.571429 4 10.285714 13.142857 1.714286 9.714286-5.142857 16.571429l-28 28q-8 8-18.285714 4.571429-13.142857-3.428571-25.714286-3.428571l-475.428571 0q-37.714286 0-64.571429 26.857143t-26.857143 64.571429l0 475.428571q0 37.714286 26.857143 64.571429t64.571429 26.857143l475.428571 0q37.714286 0 64.571429-26.857143t26.857143-64.571429l0-72q0-7.428571 5.142857-12.571429l36.571429-36.571429q8.571429-8.571429 20-4t11.428571 16.571429zm-54.857143-421.714286l164.571429 164.571429-384 384-164.571429 0 0-164.571429zm253.714286 75.428571l-52.571429 52.571429-164.571429-164.571429 52.571429-52.571429q16-16 38.857143-16t38.857143 16l86.857143 86.857143q16 16 16 38.857143t-16 38.857143z" p-id="1908" fill="#e6e6e6"></path></svg>